<svg width="50" height="50" viewBox="0 0 50 50" fill="none" xmlns="http://www.w3.org/2000/svg">
<g clip-path="url(#clip0_11_31)">
<path d="M39.375 20L30.025 10.625C29.8835 8.59245 30.3679 6.56532 31.4129 4.81626C32.4579 3.06719 34.0134 1.68008 35.8703 0.84149C37.7272 0.00289535 39.7964 -0.246963 41.7995 0.125521C43.8026 0.498004 45.6437 1.47496 47.075 2.925C48.5203 4.35997 49.493 6.20205 49.863 8.20484C50.233 10.2076 49.9826 12.2757 49.1453 14.1323C48.3081 15.9889 46.9239 17.5457 45.1779 18.5942C43.4319 19.6428 41.4073 20.1333 39.375 20ZM4.62498 38.25L27.625 15.275L34.7 22.35L11.7 45.35L4.64998 38.25H4.62498ZM1.12498 45.325L6.39998 40.025L9.94998 43.575L4.64998 48.875L1.09998 45.325H1.12498ZM25 37.5L30 32.5V50H25V37.5Z" fill="white" fill-opacity="0.5"/>
</g>
<defs>
<clipPath id="clip0_11_31">
<rect width="50" height="50" fill="white"/>
</clipPath>
</defs>
</svg>
