<svg width="72" height="72" viewBox="0 0 72 72" fill="none" xmlns="http://www.w3.org/2000/svg">
<path d="M52.661 49.322H19.339C17.4949 49.322 16 50.8167 16 52.6605C16 54.5043 17.4949 55.999 19.339 55.999H52.661C54.5051 55.999 56 54.5043 56 52.6605C56 50.8167 54.5051 49.322 52.661 49.322Z" fill="#9B9B9A"/>
<path d="M56 52.661V56H39.924V49.323H56V52.661Z" fill="#D0CFCE"/>
<path d="M35.998 23.386C37.931 23.386 39.498 21.819 39.498 19.886C39.498 17.953 37.931 16.386 35.998 16.386C34.0651 16.386 32.498 17.953 32.498 19.886C32.498 21.819 34.0651 23.386 35.998 23.386Z" fill="#FCEA2B"/>
<path d="M53.65 15.03C53.4813 14.9719 53.3024 14.949 53.1245 14.9628C52.9465 14.9765 52.7733 15.0267 52.6155 15.1101C52.4578 15.1936 52.3188 15.3085 52.2073 15.4478C52.0957 15.5871 52.0139 15.7478 51.967 15.92L49.649 23.558C49.4813 23.8733 49.253 24.1523 48.9772 24.3792C48.7015 24.606 48.3837 24.7762 48.042 24.88L44.295 25.799C43.005 26.124 41.698 26.369 40.378 26.531L31.684 27.175C30.3486 27.1258 29.0363 27.5328 27.963 28.329L27.343 28.79L27.193 28.917C26.1552 29.8946 25.3342 31.0791 24.783 32.394L24.097 34.444C23.879 35.061 23.546 35.994 23.225 36.778C22.9632 37.3827 22.8322 38.036 22.8409 38.6949C22.8495 39.3538 22.9974 40.0034 23.275 40.601L27.078 45.649C27.322 46.186 27.857 46.531 28.446 46.531C28.652 46.531 28.489 46.573 28.69 46.484C28.8657 46.4195 29.0261 46.319 29.1607 46.1889C29.2953 46.0588 29.4013 45.902 29.4718 45.7286C29.5423 45.5552 29.5758 45.369 29.5702 45.1819C29.5645 44.9947 29.5199 44.8109 29.439 44.642L26.329 39.086C26.2332 38.8647 26.1853 38.6257 26.1884 38.3846C26.1915 38.1435 26.2455 37.9058 26.347 37.687C26.828 36.723 27.365 35.787 27.954 34.885L29.005 42.937C29.0356 43.1714 29.1503 43.3866 29.3279 43.5427C29.5054 43.6987 29.7337 43.7848 29.97 43.785L40.949 43.798C41.514 43.798 41.973 43.34 41.974 42.775V35.828C41.9264 34.2168 42.2465 32.616 42.91 31.147L49.224 28.076C49.9832 27.7321 50.6648 27.2378 51.2275 26.623C51.7903 26.0082 52.2225 25.2856 52.498 24.499L54.518 16.855C54.6262 16.4975 54.5973 16.1125 54.4368 15.7752C54.2762 15.4379 53.9957 15.1725 53.65 15.031" fill="#FCEA2B"/>
<path d="M36.002 23.386C37.935 23.386 39.502 21.819 39.502 19.886C39.502 17.953 37.935 16.386 36.002 16.386C34.069 16.386 32.502 17.953 32.502 19.886C32.502 21.819 34.069 23.386 36.002 23.386Z" stroke="black" stroke-width="2.333" stroke-miterlimit="10"/>
<path d="M41.971 30.792L41.471 32.292C41.1505 33.4315 40.9824 34.6084 40.971 35.792V42.792M29.971 42.792L28.971 34.792" stroke="black" stroke-width="2" stroke-linecap="round" stroke-linejoin="round"/>
<path d="M27.657 45.649L23.148 39.989C22.9424 39.57 22.8265 39.1128 22.8077 38.6465C22.7889 38.1802 22.8677 37.7151 23.039 37.281C23.353 36.495 23.6504 35.7025 23.931 34.904L24.696 32.684C25.1691 31.4608 25.8705 30.3389 26.763 29.378L26.935 29.207C27.8851 28.3498 29.074 27.8028 30.343 27.639L39.361 26.945C40.6835 26.8236 41.996 26.6105 43.289 26.307L47.409 25.277C47.9894 25.0964 48.523 24.7901 48.9717 24.38C49.4203 23.9699 49.7732 23.4659 50.005 22.904L52.474 15.793" stroke="black" stroke-width="2" stroke-linecap="round" stroke-linejoin="round"/>
<path d="M30.746 20.455V17.219C30.746 15.8235 31.3004 14.4851 32.2872 13.4982C33.274 12.5114 34.6124 11.957 36.008 11.957C37.4034 11.9573 38.7415 12.5118 39.7281 13.4986C40.7147 14.4854 41.269 15.8236 41.269 17.219V20.455" stroke="black" stroke-width="2.216" stroke-linecap="round" stroke-linejoin="round"/>
<path d="M21.534 46.483H34.3M37.693 46.483H50.458M55.998 52.661V49.323H15.998V56H55.998V52.661Z" stroke="black" stroke-width="2" stroke-linecap="round" stroke-linejoin="round"/>
<path d="M46.657 53.661C47.2093 53.661 47.657 53.2133 47.657 52.661C47.657 52.1087 47.2093 51.661 46.657 51.661C46.1047 51.661 45.657 52.1087 45.657 52.661C45.657 53.2133 46.1047 53.661 46.657 53.661Z" fill="black"/>
<path d="M49.645 53.661C50.1973 53.661 50.645 53.2133 50.645 52.661C50.645 52.1087 50.1973 51.661 49.645 51.661C49.0927 51.661 48.645 52.1087 48.645 52.661C48.645 53.2133 49.0927 53.661 49.645 53.661Z" fill="black"/>
<path d="M30.526 20.6099C30.0925 20.6099 29.6767 20.4377 29.3702 20.1312C29.0637 19.8247 28.8915 19.4089 28.8915 18.9754C28.8915 18.5419 29.0637 18.1262 29.3702 17.8197C29.6767 17.5131 30.0925 17.3409 30.526 17.3409M41.257 17.3409C41.6905 17.3409 42.1062 17.5131 42.4127 17.8197C42.7193 18.1262 42.8915 18.5419 42.8915 18.9754C42.8915 19.4089 42.7193 19.8247 42.4127 20.1312C42.1062 20.4377 41.6905 20.6099 41.257 20.6099" stroke="black" stroke-width="2.216" stroke-linecap="round" stroke-linejoin="round"/>
</svg>
