<svg width="48" height="48" viewBox="0 0 48 48" fill="none" xmlns="http://www.w3.org/2000/svg">
<path d="M40.778 17.192C41.6855 18.6024 42.081 20.2818 41.898 21.949L43.156 18.045C44.205 19.969 44.19 21.664 43.316 25.117L44.354 23.453C44.4699 24.2331 44.4176 25.0289 44.2006 25.7871C43.9836 26.5453 43.607 27.2483 43.096 27.849L44.5 26.534C43.238 36.147 35.646 39.154 25.43 39.154M22.756 39.082C14.154 38.602 8.87999 35.692 4.54299 29.852L7.08099 30.567C5.38099 29.555 2.88099 26.712 3.63999 24.107L7.05799 26.943C5.56499 24.638 3.74099 22.045 4.17299 18.863L7.07599 21.061C7.404 19.4455 8.07214 17.9183 9.03599 16.581" stroke="#990505" stroke-linecap="round" stroke-linejoin="round"/>
<path d="M33.909 27.792L35.37 29.542L36.174 27.583L33.909 27.792ZM35.319 31.6C35.899 32.567 36.187 32.649 37.381 32.481C36.8125 32.8421 36.2845 33.2631 35.806 33.737C35.012 34.69 35.04 36.269 34.051 37.017C33.7932 37.1952 33.4756 37.2646 33.167 37.21C33.0131 37.1898 32.8651 37.138 32.7322 37.0578C32.5994 36.9776 32.4845 36.8708 32.395 36.744C31.848 35.837 32.372 34.618 32.215 33.57C32.125 32.964 31.776 31.783 31.776 31.783C33.137 32.727 34.375 32.641 35.319 31.6Z" stroke="#990505" stroke-linecap="round" stroke-linejoin="round"/>
<path d="M26.95 26.622C27.4481 26.622 27.852 26.0163 27.852 25.269C27.852 24.5218 27.4481 23.916 26.95 23.916C26.4518 23.916 26.048 24.5218 26.048 25.269C26.048 26.0163 26.4518 26.622 26.95 26.622Z" stroke="#990505" stroke-linecap="round" stroke-linejoin="round"/>
<path d="M38.274 26.633C38.6728 26.633 38.996 26.1083 38.996 25.461C38.996 24.8137 38.6728 24.289 38.274 24.289C37.8753 24.289 37.552 24.8137 37.552 25.461C37.552 26.1083 37.8753 26.633 38.274 26.633Z" stroke="#990505" stroke-linecap="round" stroke-linejoin="round"/>
<path d="M9.82801 10.385C9.8203 8.20911 10.4769 6.08271 11.71 4.28998C13.5676 4.70738 15.3337 5.4593 16.922 6.50898M19.905 9.20498C20.4894 9.90909 21.0127 10.6618 21.469 11.455M32.391 12.014C32.6614 10.9256 33.0641 9.87446 33.59 8.88398M35.252 6.53198C35.9071 5.78998 36.6434 5.12382 37.447 4.54598C38.1707 5.24113 38.7558 6.06745 39.171 6.98098M20.508 9.92898C26.342 8.75398 28.651 9.12098 32.523 10.833" stroke="#990505" stroke-linecap="round" stroke-linejoin="round"/>
<path d="M10.62 13.646L14.228 8.23499C16.65 4.60199 33.274 3.46999 38.473 8.66799L42.982 13.178L41.178 14.981L36.669 10.472C33.035 6.83799 19.316 7.36699 16.934 10.94L13.326 16.351L10.62 13.646Z" stroke="#990505" stroke-linecap="round" stroke-linejoin="round"/>
<path d="M17.833 10.121C18.7383 11.0588 19.3071 12.2704 19.4504 13.5659C19.5937 14.8615 19.3035 16.168 18.625 17.281C17.9829 18.3728 16.9695 19.1971 15.7698 19.6034C14.5702 20.0097 13.2644 19.9709 12.091 19.494C10.9051 18.9755 9.92951 18.0711 9.32275 16.9279C8.71599 15.7846 8.51379 14.4698 8.74902 13.197C8.9407 11.9315 9.56803 10.7725 10.5228 9.91992C11.4776 9.06739 12.6999 8.57477 13.979 8.52703M37.495 7.74903C39.241 6.52303 41.431 7.08803 42.66 9.08003C43.2605 10.0984 43.5578 11.267 43.517 12.4485C43.4763 13.6301 43.0992 14.7754 42.43 15.75C42.1631 16.1772 41.8063 16.5411 41.3844 16.8163C40.9625 17.0914 40.4857 17.2713 39.9871 17.3434C39.4886 17.4155 38.9804 17.378 38.4978 17.2335C38.0152 17.0891 37.57 16.8412 37.193 16.507C36.3548 15.6896 35.7745 14.6444 35.5241 13.5007C35.2737 12.357 35.3641 11.1649 35.784 10.072" stroke="#990505" stroke-linecap="round" stroke-linejoin="round"/>
<path d="M11.498 19.28L11.151 21.278L12.581 21.724L13.649 19.892M11.848 21.608C11.761 22.265 11.7577 22.9303 11.838 23.588C12.097 24.664 13.382 25.428 13.361 26.534C13.312 29.083 9.83299 30.65 9.59099 33.187C9.24099 36.872 13.563 39.535 13.145 43.709" stroke="#990505" stroke-linecap="round" stroke-linejoin="round"/>
<path d="M26.223 31.535C29.9586 31.535 32.987 28.5067 32.987 24.771C32.987 21.0354 29.9586 18.007 26.223 18.007C22.4873 18.007 19.459 21.0354 19.459 24.771C19.459 28.5067 22.4873 31.535 26.223 31.535Z" stroke="#990505" stroke-linecap="round" stroke-linejoin="round"/>
<path d="M25.567 31.616L25.361 33.636M17.072 43.71C17.1383 43.5286 17.1436 43.3304 17.0869 43.1458C17.0302 42.9611 16.9147 42.8 16.758 42.687C16.5243 42.54 16.2476 42.4768 15.9732 42.5077C15.6989 42.5386 15.4432 42.6617 15.248 42.857L14.498 43.709M24.973 36.102L24.55 38.269M23.323 40.182L20.953 41.318M19.05 41.642L16.4 43.082M25.547 32.952C25.2269 32.9273 24.9085 33.0183 24.6497 33.2084C24.391 33.3985 24.2091 33.6751 24.137 33.988L24.002 35.505C23.9764 35.7578 24.0328 36.0121 24.1628 36.2303C24.2928 36.4486 24.4895 36.6192 24.724 36.717C25.0646 36.7453 25.4044 36.6525 25.6833 36.455C25.9623 36.2574 26.1626 35.9678 26.249 35.637L26.435 34.372C26.4672 34.0701 26.3972 33.7661 26.2362 33.5087C26.0752 33.2513 25.8325 33.0553 25.547 32.952ZM23.496 38.288L22.783 39.411C22.6618 39.597 22.6037 39.8169 22.6172 40.0384C22.6307 40.2599 22.7152 40.4712 22.858 40.641C23.1109 40.7992 23.4114 40.8631 23.7068 40.8216C24.0022 40.7801 24.2735 40.6358 24.473 40.414L25.125 39.508C25.2716 39.285 25.3387 39.019 25.3152 38.7531C25.2918 38.4872 25.1793 38.237 24.996 38.043C24.7577 37.8986 24.4758 37.8439 24.2008 37.8888C23.9258 37.9337 23.6759 38.0753 23.496 38.288ZM20.388 40.404L19.078 40.634C18.673 40.704 18.196 41.106 18.218 41.516C18.2712 41.8096 18.4261 42.075 18.6557 42.2656C18.8852 42.4562 19.1746 42.5597 19.473 42.558L20.583 42.43C20.8464 42.3882 21.0881 42.2588 21.2688 42.0626C21.4496 41.8664 21.5589 41.615 21.579 41.349C21.5256 41.0755 21.3762 40.83 21.1579 40.6567C20.9396 40.4835 20.6665 40.3939 20.388 40.404Z" stroke="#990505" stroke-linecap="round" stroke-linejoin="round"/>
</svg>
