<svg width="24" height="24" viewBox="0 0 24 24" fill="none" xmlns="http://www.w3.org/2000/svg">
<path d="M9.39998 10.5L14.17 2.24003C12.695 1.91063 11.1645 1.92038 9.6938 2.26856C8.22314 2.61674 6.8507 3.29426 5.67998 4.25003L9.33998 10.6L9.39998 10.5ZM21.54 9.00003C20.62 6.08003 18.39 3.74003 15.54 2.66003L11.88 9.00003H21.54ZM21.8 10H14.31L14.6 10.5L19.36 18.75C21.0607 16.9141 22.0039 14.5027 22 12C22 11.31 21.93 10.65 21.8 10ZM8.53998 12L4.63998 5.25003C3.56848 6.41048 2.78839 7.80916 2.36413 9.3306C1.93987 10.852 1.8836 12.4526 2.19998 14H9.68998L8.53998 12ZM2.45998 15C3.37998 17.92 5.60998 20.26 8.45998 21.34L12.12 15H2.45998ZM13.73 15L9.82998 21.76C11.305 22.0894 12.8355 22.0797 14.3062 21.7315C15.7768 21.3833 17.1493 20.7058 18.32 19.75L14.66 13.4L13.73 15Z" fill="#990505"/>
</svg>
