<svg width="24" height="24" viewBox="0 0 24 24" fill="none" xmlns="http://www.w3.org/2000/svg">
<path d="M12.001 22C6.47798 22 2.00098 17.523 2.00098 12C2.00098 6.477 6.47798 2 12.001 2C17.524 2 22.001 6.477 22.001 12C22.001 17.523 17.524 22 12.001 22ZM10.915 11.568C11.155 10.728 11.99 10.027 12.905 9.92C13.092 10.614 13.293 11.293 13.45 11.983C13.503 12.213 13.487 12.478 13.432 12.71C13.219 13.602 12.184 13.952 11.454 13.395C10.924 12.99 10.712 12.275 10.915 11.568ZM14.732 11.371C14.607 10.906 14.476 10.444 14.339 9.951C14.839 10.081 15.246 10.311 15.594 10.648C16.851 11.87 16.979 13.948 15.888 15.38C14.753 16.87 12.733 17.514 10.86 16.985C8.55798 16.335 7.05198 14.033 7.41898 11.669C7.69298 9.901 8.68898 8.665 10.319 7.936C10.726 7.754 10.899 7.376 10.739 7.006C10.582 6.642 10.199 6.502 9.79498 6.663C7.07398 7.751 5.47498 10.797 6.12498 13.65C6.83798 16.768 9.61998 18.813 12.8 18.509C14.532 18.343 15.964 17.561 17.016 16.162C18.522 14.16 18.313 11.379 16.553 9.663C15.887 9.013 15.082 8.645 14.163 8.51C14.08 8.497 13.946 8.458 13.931 8.404C13.844 8.091 13.751 7.772 13.725 7.45C13.696 7.093 14.015 6.81 14.375 6.805C14.628 6.802 14.809 6.935 14.978 7.105C15.281 7.405 15.682 7.427 15.966 7.167C16.256 6.903 16.262 6.489 15.984 6.159C15.418 5.487 14.398 5.268 13.554 5.636C12.707 6.006 12.233 6.823 12.354 7.729C12.392 8.009 12.464 8.286 12.521 8.571L12.261 8.643C11.4227 8.86547 10.6838 9.36353 10.163 10.057C9.24198 11.277 9.22698 12.885 10.122 14.004C11.396 15.598 13.869 15.288 14.645 13.436C14.929 12.759 14.92 12.068 14.732 11.371Z" fill="#990505"/>
</svg>
