<svg width="56" height="56" viewBox="0 0 56 56" fill="none" xmlns="http://www.w3.org/2000/svg">
<path d="M0.625 27.824C0.625 28.949 1.515 29.629 2.617 29.629C3.297 29.629 3.836 29.301 4.305 28.832L27.18 7.996C27.437 7.738 27.719 7.644 28.023 7.644C28.305 7.644 28.563 7.738 28.843 7.996L51.695 28.832C52.187 29.301 52.726 29.629 53.383 29.629C54.484 29.629 55.375 28.949 55.375 27.824C55.375 27.121 55.117 26.676 54.672 26.277L46.562 18.895V5.043C46.562 4.012 45.906 3.356 44.875 3.356H41.805C40.797 3.356 40.094 4.012 40.094 5.043V13.012L30.812 4.527C29.992 3.754 28.984 3.38 28 3.38C27.015 3.38 26.031 3.755 25.187 4.528L1.328 26.277C0.906 26.676 0.625 27.121 0.625 27.824ZM7.328 47.488C7.328 50.746 9.297 52.645 12.601 52.645H43.421C46.726 52.645 48.671 50.746 48.671 47.488V30.332L28.773 12.402C28.515 12.168 28.234 12.051 27.953 12.051C27.695 12.051 27.437 12.168 27.156 12.426L7.328 30.449V47.488ZM33.109 31.106L27.765 32.394C27.273 32.512 27.062 32.723 27.062 33.566V41.418C27.062 44.699 24.882 47.043 21.625 47.043C19.352 47.043 17.875 45.637 17.875 43.691C17.875 41.465 19.609 40.246 21.695 39.707L23.781 39.145C24.93 38.863 25.023 38.652 25.023 37.621V27.355C25.023 26.02 25.281 25.785 26.406 25.504L33.039 23.864C34.234 23.559 34.539 23.934 34.539 24.824V29.277C34.539 30.59 34.211 30.848 33.109 31.106Z" fill="#990505"/>
</svg>
