<svg width="24" height="24" viewBox="0 0 24 24" fill="none" xmlns="http://www.w3.org/2000/svg">
<path d="M16.5 16.11V11H20.77C20.467 9.68179 19.8724 8.44824 19.03 7.39L20.45 5.97C20 5.46 19.55 5 19.04 4.56L17.62 6C16.07 4.74 14.12 4 12 4C9.61305 4 7.32387 4.94821 5.63604 6.63604C3.94821 8.32387 3 10.6131 3 13C3 15.3869 3.94821 17.6761 5.63604 19.364C7.32387 21.0518 9.61305 22 12 22C12.42 22 12.83 21.96 13.24 21.91C13.09 21.46 13 21 13 20.5C13 18.36 14.5 16.57 16.5 16.11ZM13 14H11V7H13V14ZM15 3H9V1H15V3ZM22 13V15H20V20.5C20 21.163 19.7366 21.7989 19.2678 22.2678C18.7989 22.7366 18.163 23 17.5 23C16.837 23 16.2011 22.7366 15.7322 22.2678C15.2634 21.7989 15 21.163 15 20.5C15.0002 20.085 15.1037 19.6766 15.3012 19.3116C15.4987 18.9466 15.784 18.6365 16.1312 18.4093C16.4785 18.1821 16.8769 18.0449 17.2904 18.0101C17.704 17.9753 18.1196 18.044 18.5 18.21V13H22Z" fill="#990505"/>
</svg>
