<svg width="24" height="24" viewBox="0 0 24 24" fill="none" xmlns="http://www.w3.org/2000/svg">
<path d="M10.5 17C11.2 17 11.7917 16.7583 12.275 16.275C12.7583 15.7917 13 15.2 13 14.5V9H16V7H12V12.5C11.7833 12.35 11.55 12.229 11.3 12.137C11.05 12.045 10.7833 11.9993 10.5 12C9.8 12 9.20833 12.2417 8.725 12.725C8.24167 13.2083 8 13.8 8 14.5C8 15.2 8.24167 15.7917 8.725 16.275C9.20833 16.7583 9.8 17 10.5 17ZM4 20C3.45 20 2.97933 19.8043 2.588 19.413C2.19667 19.0217 2.00067 18.5507 2 18V6C2 5.45 2.196 4.97933 2.588 4.588C2.98 4.19667 3.45067 4.00067 4 4H20C20.55 4 21.021 4.196 21.413 4.588C21.805 4.98 22.0007 5.45067 22 6V18C22 18.55 21.8043 19.021 21.413 19.413C21.0217 19.805 20.5507 20.0007 20 20H4Z" fill="#990505"/>
</svg>
