<svg width="24" height="24" viewBox="0 0 24 24" fill="none" xmlns="http://www.w3.org/2000/svg">
<path d="M11.316 11.267C11.5812 11.267 11.8355 11.1616 12.0231 10.9741C12.2106 10.7866 12.316 10.5322 12.316 10.267C12.316 10.0018 12.2106 9.74743 12.0231 9.55989C11.8355 9.37236 11.5812 9.267 11.316 9.267C11.0508 9.267 10.7964 9.37236 10.6089 9.55989C10.4213 9.74743 10.316 10.0018 10.316 10.267C10.316 10.5322 10.4213 10.7866 10.6089 10.9741C10.7964 11.1616 11.0508 11.267 11.316 11.267Z" fill="#990505"/>
<path fill-rule="evenodd" clip-rule="evenodd" d="M12 1.99999C13.784 1.99999 15.253 2.15699 16.377 2.34699C17.516 2.53899 18.085 2.63499 18.561 3.22099C19.037 3.80699 19.011 4.43999 18.961 5.70599C18.789 10.055 17.851 15.486 12.75 15.966V19.5H14.18C14.4111 19.5001 14.635 19.5803 14.8136 19.7269C14.9923 19.8735 15.1147 20.0774 15.16 20.304L15.35 21.25H18C18.1989 21.25 18.3897 21.329 18.5303 21.4697C18.671 21.6103 18.75 21.8011 18.75 22C18.75 22.1989 18.671 22.3897 18.5303 22.5303C18.3897 22.671 18.1989 22.75 18 22.75H5.99997C5.80106 22.75 5.61029 22.671 5.46964 22.5303C5.32899 22.3897 5.24997 22.1989 5.24997 22C5.24997 21.8011 5.32899 21.6103 5.46964 21.4697C5.61029 21.329 5.80106 21.25 5.99997 21.25H8.64997L8.83997 20.304C8.88527 20.0774 9.00765 19.8735 9.18631 19.7269C9.36497 19.5803 9.58888 19.5001 9.81997 19.5H11.25V15.966C6.14997 15.486 5.21197 10.054 5.03997 5.70599C4.98897 4.43999 4.96397 3.80599 5.43997 3.22099C5.91497 2.63499 6.48397 2.53899 7.62297 2.34699C9.06979 2.10987 10.5339 1.9938 12 1.99999ZM13.5 4.74999C13.5 4.55108 13.421 4.36031 13.2803 4.21966C13.1396 4.07901 12.9489 3.99999 12.75 3.99999C12.5511 3.99999 12.3603 4.07901 12.2196 4.21966C12.079 4.36031 12 4.55108 12 4.74999V8.12799C11.5497 7.96879 11.0604 7.957 10.603 8.09433C10.1456 8.23165 9.74373 8.51097 9.45559 8.89185C9.16745 9.27273 9.00798 9.73542 9.00027 10.2129C8.99255 10.6905 9.13698 11.1581 9.41266 11.5481C9.68834 11.9381 10.081 12.2302 10.5337 12.3823C10.9865 12.5343 11.4758 12.5383 11.931 12.3938C12.3862 12.2492 12.7836 11.9635 13.0657 11.5781C13.3477 11.1927 13.4998 10.7276 13.5 10.25V7.19999C13.875 7.39199 14.3 7.49999 14.75 7.49999C14.9489 7.49999 15.1396 7.42097 15.2803 7.28032C15.421 7.13967 15.5 6.9489 15.5 6.74999C15.5 6.55108 15.421 6.36031 15.2803 6.21966C15.1396 6.07901 14.9489 5.99999 14.75 5.99999C14.06 5.99999 13.5 5.43999 13.5 4.74999Z" fill="#990505"/>
<path d="M2 8.16201V8.23501C2 9.09501 2 9.52601 2.207 9.87801C2.414 10.23 2.791 10.439 3.543 10.858L4.337 11.298C3.79 9.45001 3.607 7.46401 3.54 5.76601C3.53684 5.69234 3.5335 5.61867 3.53 5.54501L3.529 5.49301C2.877 5.71901 2.511 5.88801 2.283 6.20401C2 6.59701 2 7.12001 2 8.16201ZM22 8.16201V8.23501C22 9.09501 22 9.52601 21.793 9.87801C21.586 10.23 21.209 10.439 20.457 10.858L19.664 11.298C20.21 9.45001 20.393 7.46401 20.46 5.76601L20.47 5.54501L20.472 5.49301C21.123 5.71901 21.489 5.88801 21.717 6.20401C22 6.59701 22 7.11901 22 8.16201Z" fill="#990505"/>
</svg>
