<svg width="341" height="287" viewBox="0 0 341 287" fill="none" xmlns="http://www.w3.org/2000/svg">
<g filter="url(#filter0_d_19_2)">
<path fill-rule="evenodd" clip-rule="evenodd" d="M256.336 237.191C293.854 203.854 245.416 184.831 254.343 156.659C263.27 128.486 285.866 86.1179 201.556 93.5824C117.246 101.047 47.2515 185.852 77.3083 225.764C107.365 265.676 218.819 270.529 256.336 237.191Z" fill="#F20100"/>
<path fill-rule="evenodd" clip-rule="evenodd" d="M186.734 168.846C189.17 170.023 191.605 171.201 194.041 172.379C197.878 174.234 201.781 176.135 204.874 179.053C207.968 181.971 210.181 186.121 209.717 190.331C209.172 195.28 205.231 199.093 201.53 202.454C196.706 206.837 191.882 211.219 187.058 215.601C184.944 217.521 182.629 220.255 183.768 222.865C186.725 229.643 189.403 237.353 186.714 244.241C185.955 246.185 184.384 248.192 182.284 248.097C180.722 248.026 179.483 246.807 178.479 245.618C174.485 240.892 171.522 235.313 169.85 229.373C167.709 221.766 167.97 212.852 173.18 206.882C177.229 202.242 184.205 199.123 184.636 193.001C176.748 186.354 165.338 184.089 155.481 187.213C145.623 190.337 137.648 198.746 135.103 208.699C133.717 214.119 136.82 219.699 140.636 223.814C144.452 227.928 149.134 231.34 152.07 236.113C157.976 245.711 155.398 258.003 152.634 268.91C151.675 272.695 145.889 273.327 143.008 270.67C140.128 268.013 139.631 263.672 139.937 259.782C140.242 255.891 141.157 251.958 140.39 248.13C138.408 238.251 126.754 233.741 121.044 225.414C116.717 219.103 116.12 210.846 117.723 203.379C119.325 195.913 122.908 189.035 126.454 182.26C119.856 172.238 117.087 159.798 118.815 147.95C119.687 141.972 111.758 137.373 112.583 131.389C113.243 126.612 118.889 124.456 123.662 123.557C132.746 121.847 142.036 121.215 151.271 121.678C153.336 121.782 154.244 118.805 153.21 117.029C152.176 115.252 150.157 114.338 148.485 113.132C145.116 110.701 142.999 106.87 141.832 102.903C140.334 97.811 140.331 92.0299 143.113 87.5006C143.808 86.3688 145.004 84.6912 146.822 86.3169C147.368 83.4794 153.161 80.7521 156.864 82.2754C159.084 83.1884 161.45 81.316 162.86 79.3857C164.271 77.4553 165.636 75.1243 167.98 74.6005C172.178 73.6626 174.866 79.2367 174.382 83.4794C173.899 87.7221 172.019 92.2042 173.865 96.0611C174.567 97.5273 175.783 98.7971 176.015 100.404C176.218 101.798 175.855 101.254 175.067 104.464C174.279 107.673 172.381 108.704 171.598 110.479C170.393 113.212 170.574 115.612 168.057 118.031C167.634 118.438 168.496 119.371 168.191 120.062C174.391 120.15 179.101 125.281 183.9 129.177C189.867 134.023 197.168 137.413 204.85 138.07C212.533 138.728 220.572 136.491 226.308 131.377C228.553 129.376 233.91 131.991 234.301 129.021C234.376 128.251 234.17 127.92 233.436 127.73C233.056 127.632 232.157 127.836 231.878 127.48C231.06 126.436 235.824 124.636 235.622 126.069C235.571 126.437 235.354 126.708 235.382 126.946C235.462 127.638 235.858 127.851 236.471 127.973C237.762 128.053 239.611 127.175 240.383 126.069C240.9 125.329 240.698 125.133 240.293 125.1C239.63 125.047 238.421 125.431 238.916 124.591C239.525 123.557 241.094 122.577 242.587 123.477C242.909 123.671 242.795 124.048 242.63 124.418C242.327 125.098 241.849 125.755 243.562 125.221C246.211 124.395 246.362 124.55 247.047 124.752C247.731 124.953 248.735 126.151 249.378 127.27C250.702 129.571 252.059 131.986 252.183 134.633C252.307 137.28 250.768 140.208 248.151 140.737C248.127 141.507 248.507 142.233 249.083 142.743C249.711 143.3 251.324 142.961 251.053 143.458C250.172 145.073 248.027 145.487 246.339 144.922C245.876 144.767 246.945 143.972 247.047 143.421C247.209 142.539 247.024 141.59 246.483 140.869C244.956 141.51 243.429 142.151 241.902 142.793C242.345 143.355 242.143 144.023 242.587 144.585C243.005 145.116 244.079 144.981 244.259 145.735C244.455 146.554 242.869 146.898 242.05 146.975C241.152 147.059 239.754 147.15 239.336 146.554C238.861 145.877 240.351 145.66 240.419 144.951C240.494 144.177 240.209 143.35 239.525 142.975C238.213 142.258 236.332 143.579 236.576 145.045C237.193 148.738 235.651 152.71 232.696 155.037C229.741 157.365 225.494 157.955 222.008 156.522C218.857 155.226 215.367 156.893 212.106 157.886C204.713 160.14 196.278 158.703 190.066 154.132C189.707 159.241 188.721 164.776 185.43 168.543C185.964 168.846 185.689 168.846 186.734 168.846Z" fill="white"/>
<path d="M153.853 113.53C154.845 113.53 155.649 112.732 155.649 111.747C155.649 110.762 154.845 109.963 153.853 109.963C152.86 109.963 152.056 110.762 152.056 111.747C152.056 112.732 152.86 113.53 153.853 113.53Z" fill="#FFB61D"/>
<path d="M166.743 109.957C167.736 109.957 168.54 109.156 168.54 108.168C168.54 107.18 167.736 106.379 166.743 106.379C165.751 106.379 164.947 107.18 164.947 108.168C164.947 109.156 165.751 109.957 166.743 109.957Z" fill="#FFB61D"/>
<path fill-rule="evenodd" clip-rule="evenodd" d="M177.236 187.87C176.427 187.509 175.617 187.148 174.802 186.796C168.835 184.218 161.678 182.364 156.048 185.603C155.188 180.153 161.077 175.99 166.495 174.757C167.982 174.419 169.515 174.179 171.049 173.939C175.107 173.305 179.166 172.67 182.352 170.213C187.082 166.565 188.343 160.062 188.759 154.132C194.971 158.703 203.407 160.14 210.8 157.886C211.364 157.715 211.935 157.522 212.51 157.329C215.258 156.405 218.096 155.45 220.702 156.522C224.187 157.955 228.435 157.365 231.389 155.037C234.344 152.71 235.886 148.738 235.27 145.045C235.025 143.579 236.906 142.258 238.218 142.975C238.903 143.35 239.188 144.177 239.112 144.951C239.082 145.268 238.766 145.487 238.47 145.693C238.104 145.946 237.767 146.18 238.03 146.554C238.448 147.15 239.845 147.059 240.743 146.975C241.562 146.898 243.148 146.554 242.952 145.735C242.849 145.303 242.452 145.163 242.053 145.022C241.756 144.917 241.459 144.812 241.28 144.585C241.058 144.304 240.998 143.996 240.938 143.689C240.877 143.381 240.817 143.074 240.595 142.793L245.176 140.869C245.718 141.59 245.902 142.539 245.74 143.421C245.696 143.658 245.474 143.94 245.271 144.197C245.002 144.537 244.769 144.833 245.033 144.922C246.721 145.487 248.865 145.073 249.746 143.458C249.884 143.205 249.534 143.169 249.075 143.121C248.631 143.074 248.085 143.017 247.777 142.743C247.2 142.233 246.821 141.507 246.844 140.737C249.461 140.208 251 137.28 250.876 134.633C250.753 131.986 249.395 129.571 248.072 127.27C247.429 126.151 246.424 124.953 245.74 124.752C245.697 124.739 245.657 124.727 245.618 124.715C245.027 124.535 244.739 124.447 242.256 125.221C240.717 125.7 240.945 125.22 241.227 124.625C241.26 124.557 241.292 124.488 241.323 124.418C241.489 124.048 241.602 123.671 241.28 123.477C239.787 122.577 238.218 123.557 237.609 124.591C237.246 125.208 237.801 125.164 238.384 125.119C238.595 125.103 238.81 125.086 238.986 125.1C239.391 125.133 239.593 125.329 239.076 126.069C238.304 127.175 236.455 128.053 235.164 127.973C234.552 127.851 234.155 127.638 234.075 126.946C234.061 126.819 234.115 126.683 234.176 126.529C234.231 126.393 234.291 126.242 234.316 126.069C234.517 124.636 229.754 126.436 230.571 127.48C230.753 127.712 231.198 127.707 231.592 127.701C231.802 127.699 231.997 127.696 232.129 127.73C232.864 127.92 233.069 128.251 232.994 129.021C232.781 130.642 231.087 130.599 229.227 130.551C227.681 130.511 226.021 130.469 225.001 131.377C219.265 136.491 211.226 138.728 203.544 138.07C195.861 137.413 188.56 134.023 182.593 129.177C181.769 128.508 180.948 127.803 180.122 127.093C176.134 123.668 172.02 120.135 166.885 120.062C167.035 119.72 166.9 119.319 166.777 118.952C166.651 118.577 166.536 118.237 166.75 118.031C168.076 116.757 168.753 114.276 169.34 112.127C169.867 110.195 170.321 108.532 171.106 108.256C172.678 107.703 173.139 106.323 173.671 104.732C173.701 104.643 173.73 104.554 173.761 104.464C173.942 103.925 174.104 103.49 174.242 103.119C174.664 101.985 174.861 101.454 174.709 100.404C174.557 99.3564 173.987 98.4519 173.415 97.543C173.109 97.0576 172.802 96.5712 172.558 96.0611C171.215 93.2551 171.844 90.1185 172.473 86.9836C172.709 85.8094 172.944 84.6355 173.076 83.4794C173.559 79.2367 170.871 73.6626 166.673 74.6005C164.628 75.0576 163.328 76.8905 162.093 78.6328C161.912 78.8872 161.733 79.1397 161.554 79.3857C160.143 81.316 157.777 83.1884 155.558 82.2754C151.854 80.7521 146.061 83.4794 145.516 86.3169C143.697 84.6912 142.502 86.3688 141.807 87.5006C139.025 92.0299 139.028 97.811 140.525 102.903C141.692 106.87 143.809 110.701 147.178 113.132C147.606 113.441 148.057 113.731 148.509 114.02C149.82 114.863 151.134 115.708 151.904 117.029C152.938 118.805 152.029 121.782 149.964 121.678C140.73 121.215 131.44 121.847 122.356 123.557C117.582 124.456 111.936 126.612 111.277 131.389C110.865 134.374 112.632 137.015 114.398 139.655C116.172 142.306 117.945 144.955 117.508 147.95C115.78 159.798 118.55 172.238 125.147 182.26C121.602 189.035 118.018 195.913 116.416 203.379C114.813 210.846 115.41 219.103 119.738 225.414C121.993 228.703 125.175 231.396 128.322 234.06C133.144 238.141 137.884 242.153 139.083 248.13C139.646 250.94 139.303 253.806 138.96 256.672C138.836 257.709 138.711 258.747 138.63 259.782C138.325 263.672 138.821 268.013 141.701 270.67C143.346 272.187 145.939 272.632 148.038 272.03C148.02 272.35 148.002 272.647 147.985 272.928C147.889 274.454 147.826 275.455 148.096 276.641C148.166 276.95 148.28 277.302 148.578 277.415C149.172 277.639 149.569 276.736 149.528 276.123C149.376 273.802 149.085 272.493 148.804 271.753C150.026 271.212 150.985 270.262 151.328 268.91C154.091 258.003 156.669 245.711 150.763 236.113C148.813 232.941 146.091 230.371 143.365 227.797C141.989 226.496 140.61 225.195 139.329 223.814C135.513 219.699 132.41 214.119 133.796 208.699C136.342 198.746 144.317 190.337 154.174 187.213C164.031 184.089 175.442 186.354 183.33 193.001C183.036 197.171 179.706 199.948 176.333 202.761C174.753 204.078 173.165 205.402 171.874 206.882C166.663 212.852 166.402 221.766 168.543 229.373C170.215 235.313 173.178 240.892 177.172 245.618C178.177 246.807 179.415 248.026 180.978 248.097C183.077 248.192 184.649 246.185 185.408 244.241C188.096 237.353 185.418 229.643 182.461 222.865C181.322 220.255 183.638 217.521 185.752 215.601L200.224 202.454C203.924 199.093 207.865 195.28 208.41 190.331C208.874 186.121 206.661 181.971 203.567 179.053C200.474 176.135 196.571 174.234 192.734 172.379L185.428 168.846C187.836 171.917 191.471 173.642 195.051 175.34C195.742 175.668 196.432 175.995 197.11 176.33C201.298 178.403 205.597 181.428 206.556 185.973C207.734 191.556 203.453 196.682 199.485 200.81C194.46 206.037 189.392 211.302 183.422 215.437C181.391 216.844 179.139 218.153 176.664 218.241C174.188 218.329 171.495 216.789 171.106 214.362C170.755 212.17 172.277 210.162 173.708 208.456L184.288 195.844C185.896 193.927 188.014 193.428 190.534 192.835C191.421 192.626 192.357 192.406 193.338 192.107C187.401 192.408 182.346 190.152 177.236 187.87ZM134.415 153.973C134.842 157.791 136.028 161.613 138.43 164.624C140.834 167.635 144.579 169.731 148.445 169.565C149.74 169.509 150.155 167.597 149.386 166.561C148.719 165.664 147.617 165.255 146.547 164.858C146.384 164.798 146.221 164.737 146.061 164.675C144.853 164.21 143.564 163.431 143.346 162.164C146.756 164.796 151.846 165.04 155.496 162.747C156.766 166.364 160.979 168.537 164.793 167.939C168.606 167.342 171.794 164.317 173.059 160.698C173.083 160.628 173.107 160.558 173.131 160.488C173.323 159.925 173.52 159.346 173.957 158.947C174.364 158.575 174.918 158.417 175.452 158.271L185.879 155.41C186.138 155.339 186.431 155.272 186.661 155.41C186.906 155.557 186.973 155.875 187.009 156.157C187.731 161.833 184.519 167.795 179.362 170.355C176.598 171.727 173.438 172.175 170.305 172.62C166.218 173.2 162.177 173.773 159.119 176.383C157.454 177.804 156.3 179.669 155.143 181.539C154.59 182.432 154.037 183.326 153.428 184.173C149.69 189.365 142.826 192.881 136.729 190.852C133.23 189.687 130.51 186.932 128.275 184.018C121.545 175.246 117.993 164.124 118.402 153.107C118.476 151.108 118.683 149.084 119.412 147.219C124.031 152.546 129.373 157.257 135.248 161.184C135.043 160.126 134.305 159.258 133.57 158.466C131.467 156.199 129.146 154.075 126.828 151.954C121.438 147.021 116.06 142.101 113.471 135.412C112.902 133.941 112.481 132.336 112.832 130.8C113.627 127.316 117.753 125.865 121.283 125.158C129.758 123.459 138.408 122.617 147.054 122.651C147.513 127.965 151.97 132.719 157.299 133.418C162.628 134.118 168.244 130.579 169.74 125.456C169.785 125.303 169.826 125.149 169.868 124.995C170.054 124.307 170.242 123.611 170.687 123.06C171.231 122.385 172.338 122.053 172.973 122.645C177.681 127.028 182.621 131.241 188.251 134.376C193.881 137.51 200.278 139.532 206.727 139.249C195.711 143.237 184.45 146.562 173.028 149.198C172.155 149.399 171.073 149.532 170.512 148.838C168.522 146.379 165.278 144.975 162.109 145.203C158.939 145.43 155.932 147.282 154.32 150C153.736 150.984 152.28 150.86 151.171 150.552C148.867 149.912 146.495 148.928 145.133 146.975C144.903 146.645 144.704 146.29 144.505 145.936C144.116 145.243 143.728 144.553 143.114 144.058C142.246 143.358 141.108 143.187 139.981 143.018C139.668 142.971 139.356 142.924 139.05 142.866C135.572 142.205 132.492 139.751 131.091 136.524C134.369 134.345 138.797 135.379 142.417 136.937C142.987 137.183 143.559 137.44 144.132 137.699C147.202 139.083 150.333 140.496 153.644 140.194C156.459 139.937 158.915 138.484 161.382 137.024C163.564 135.733 165.753 134.438 168.206 133.96C174.497 132.736 180.673 137.385 183.619 143.036C183.641 143.079 183.663 143.123 183.686 143.166C184.168 144.094 184.689 145.098 185.655 145.487C184.67 139.987 180.506 135.162 175.181 133.349C169.856 131.536 163.584 132.808 159.403 136.549C156.809 138.871 152.867 139.035 149.481 138.182C147.574 137.701 145.756 136.949 143.937 136.196C142.527 135.612 141.116 135.028 139.662 134.569C136.332 133.521 132.486 133.211 129.523 135.046C128.633 133.1 127.443 131.29 126.006 129.699C127.43 137.807 134.882 144.473 143.156 145.04L138.564 146.771C137.492 147.175 136.38 147.605 135.592 148.434C134.245 149.853 134.198 152.035 134.415 153.973ZM132.15 210.684C131.704 212.916 131.459 215.333 132.465 217.378C133.007 218.479 133.873 219.385 134.724 220.275L134.782 220.335C139.902 225.691 144.712 231.339 149.179 237.242C147.196 239.133 144.988 240.791 142.616 242.173C141.955 242.557 141.241 242.931 140.475 242.918C139.333 242.897 138.406 242.041 137.603 241.236C131.994 235.611 126.529 229.845 121.216 223.944C119.527 222.068 117.81 220.104 117.042 217.706C116.066 214.658 116.757 211.36 117.454 208.238C119.374 199.628 121.395 190.783 126.404 183.499C129.218 188.513 134.429 192.132 140.14 193.038C136.18 198.221 133.426 204.304 132.15 210.684ZM167.834 114.693C166.996 116.431 165.583 117.967 163.75 118.604C161.307 119.453 158.619 118.604 156.227 117.622C154.983 117.111 153.727 116.545 152.764 115.612C151.947 114.821 151.387 113.809 150.869 112.8C149.254 109.656 147.919 106.37 146.885 102.993C146.031 100.201 145.59 96.6678 147.865 94.8186C150.464 96.7976 153.959 97.2941 157.212 96.9186C160.105 96.5849 162.876 95.6307 165.633 94.6817C165.977 94.5632 166.321 94.4448 166.664 94.3277C167.057 94.194 167.521 94.0707 167.86 94.3085C168.119 94.4904 168.211 94.8242 168.281 95.1313C169.328 99.7003 169.633 104.435 169.181 109.099C168.995 111.018 168.672 112.955 167.834 114.693ZM178.275 245.216C173.617 239.054 170.496 231.756 169.267 224.15C168.74 220.884 168.569 217.461 169.666 214.338C170.714 218.429 175.674 221.041 179.675 219.609C180.719 221.743 181.669 223.924 182.519 226.141C184.755 231.967 186.276 238.598 183.801 244.328C183.206 245.705 182.03 247.172 180.536 246.952C179.568 246.809 178.862 245.993 178.275 245.216ZM147.26 86.1052C148.438 84.0121 151.029 82.9487 153.436 83.1499C153.998 83.1968 154.557 83.2676 155.106 83.337C156.843 83.5569 158.468 83.7624 159.695 83.1499C161.563 82.2173 162.344 80.9208 163.138 79.6013C163.669 78.7203 164.205 77.8292 165.076 77.029C165.626 76.5228 166.241 76.037 166.974 75.8769C168.473 75.5497 169.913 76.6827 170.767 77.9486C172.599 80.6657 172.841 84.3637 171.377 87.293C169.766 90.519 166.443 92.5377 163.119 93.9815C160.726 95.021 158.193 95.8639 155.581 95.9176C152.969 95.9713 150.252 95.1505 148.451 93.2726C146.65 91.3945 145.987 88.3686 147.26 86.1052ZM139.896 255.877C139.784 255.052 139.696 254.132 140.2 253.467C142.265 253.652 144.397 252.909 145.893 251.484C145.437 250.552 144.029 250.615 143.14 251.156C142.798 251.364 142.485 251.619 142.172 251.873C141.67 252.281 141.171 252.687 140.562 252.892C139.973 252.314 140.079 251.295 140.568 250.632C141.058 249.97 141.827 249.579 142.567 249.212L147.228 246.898C146.333 246.018 144.84 246.007 143.697 246.533C142.554 247.059 141.679 248.015 140.838 248.945C139.903 247.326 140.57 245.002 142.224 244.113L148.263 240.87C148.732 240.618 149.229 240.359 149.763 240.375C150.917 240.409 151.614 241.65 151.93 242.752C152.843 245.941 152.565 249.331 152.279 252.635C151.858 257.493 151.43 262.388 150.057 267.07C149.584 268.683 148.837 270.441 147.265 271.066C145.56 271.745 143.554 270.715 142.534 269.199C141.515 267.682 141.243 265.805 140.998 263.998L139.896 255.877ZM220.406 145.735C221.06 145.656 221.626 144.906 221.308 144.334L219.063 140.304C218.767 139.774 218.464 139.22 218.425 138.615C218.385 138.01 218.69 137.336 219.272 137.149C220.104 136.881 220.869 137.68 221.351 138.405C222.367 139.932 223.252 141.544 223.995 143.219C224.876 142.053 223.913 140.444 223.034 139.278C222.154 138.111 221.384 136.323 222.484 135.358C223.571 134.405 225.298 135.382 226.13 136.56C226.567 137.179 226.927 137.865 227.285 138.55C227.978 139.875 228.667 141.19 229.907 141.985C230.442 141.66 230.175 140.846 229.851 140.314L225.691 133.48C225.319 132.869 225.934 132.04 226.646 131.937C227.358 131.834 228.045 132.212 228.639 132.614C231.5 134.546 233.778 137.505 234.316 140.897C234.853 144.29 233.393 148.059 230.394 149.771C229.487 150.289 228.476 150.612 227.448 150.81C221.195 152.017 214.35 148.044 212.345 142.043C212.039 141.125 211.965 139.87 212.835 139.435C213.499 139.104 214.301 139.498 214.854 139.991C215.653 140.703 216.224 141.614 216.795 142.526C217.345 143.404 217.895 144.283 218.65 144.984C219.131 145.431 219.752 145.814 220.406 145.735ZM155.168 152.477C155.936 152.501 156.732 152.525 157.371 152.936C158.075 153.388 158.382 154.534 157.715 155.039C157.462 155.23 157.135 155.286 156.821 155.336C153.907 155.799 150.581 156.16 148.316 154.283C147.806 154.513 147.658 155.209 147.865 155.725C148.073 156.241 148.536 156.608 148.999 156.921C151.055 158.308 153.517 159.096 156.003 159.163C154.375 160.562 151.992 161.038 149.945 160.373C149.142 160.112 148.012 159.814 147.656 160.575C149.233 162.071 151.639 162.185 153.819 162.213C149.924 164.055 144.813 162.856 142.162 159.477C141.974 159.237 141.548 159.36 141.398 159.626C141.248 159.892 141.289 160.219 141.334 160.521C141.563 162.056 141.878 163.743 143.106 164.704C143.756 165.213 144.562 165.435 145.369 165.657C145.691 165.745 146.013 165.833 146.325 165.94C147.42 166.315 148.552 167.136 148.562 168.285C145.035 168.587 141.583 166.603 139.448 163.802C137.313 161 136.332 157.488 135.88 154.004C135.763 153.103 135.681 152.171 135.944 151.301C136.47 149.57 138.193 148.524 139.781 147.638C140.933 146.996 142.522 146.404 143.436 147.351C146.414 150.437 150.629 152.314 154.931 152.469C155.01 152.472 155.089 152.475 155.168 152.477ZM162.732 158.7L207.865 146.302C209.831 145.762 212.157 145.29 213.729 146.578C195.86 152.058 177.761 156.803 159.496 160.796C158.502 161.014 157.084 160.97 156.911 159.974C157.511 159.997 157.509 159.329 157.507 158.622C157.504 157.927 157.501 157.194 158.074 157.046L210.669 143.415C210.987 143.332 211.391 143.277 211.586 143.54C211.903 143.966 211.254 144.443 210.739 144.585L160.577 158.424C161.032 159.044 161.986 158.905 162.732 158.7ZM213.619 155.127C210.362 157.292 206.229 157.861 202.337 157.403C198.444 156.945 194.734 155.539 191.127 154.017L212.72 148.011C213.477 147.8 214.412 147.635 214.946 148.207C219.328 152.905 227.3 153.743 232.577 150.061C231.962 152.984 229.297 155.363 226.303 155.661C224.597 155.831 222.917 155.392 221.245 154.955C220.802 154.839 220.359 154.723 219.917 154.619C217.807 154.122 215.421 153.929 213.619 155.127ZM153.946 119.151C154.254 118.712 154.918 118.471 155.345 118.796C157.851 120.702 161.334 121.265 164.32 120.246C165.273 119.921 166.357 120.594 166.75 121.515C167.143 122.435 166.985 123.502 166.639 124.441C165.587 127.301 162.754 129.429 159.695 129.658C156.635 129.887 153.513 128.204 152.041 125.533C151.586 124.709 151.435 123.416 152.312 123.061C153.186 122.706 153.437 121.614 153.531 120.681L153.534 120.652C153.587 120.129 153.643 119.581 153.946 119.151ZM237.391 142.045C237.038 142.14 236.666 142.233 236.313 142.139C235.96 142.046 235.649 141.694 235.738 141.342C238.894 140.845 241.941 139.675 244.612 137.933C245.652 137.255 246.756 136.073 246.231 134.953C245.883 134.211 244.948 133.925 244.124 133.959C242.93 134.007 241.817 134.539 240.743 135.06L234.952 137.871C234.683 137.554 234.794 137.046 235.079 136.743C235.353 136.451 235.743 136.301 236.119 136.157L236.161 136.141C238.79 135.128 241.239 133.658 243.364 131.817C243.986 131.278 243.663 130.168 242.952 129.75C242.242 129.332 241.349 129.414 240.537 129.565C238.181 130.001 235.915 130.903 233.908 132.202C232.92 132.841 231.517 133.549 230.709 132.697C232.89 130.503 235.88 129.332 238.777 128.221L244.382 126.069C244.772 125.92 245.193 125.768 245.598 125.871C246.148 126.011 246.471 126.563 246.721 127.071C248.137 129.947 249.179 133.005 249.814 136.144C249.906 136.599 249.983 137.103 249.746 137.503C249.532 137.867 249.114 138.053 248.722 138.214C245.032 139.729 241.245 141.009 237.391 142.045ZM210.882 142.237C210.672 142.459 210.359 142.545 210.062 142.622L158.589 155.996C159.388 154.081 161.737 153.426 163.778 152.984C177.98 149.908 191.892 145.666 205.789 141.429C206.58 141.188 207.37 140.947 208.16 140.706C208.846 140.497 209.593 140.289 210.264 140.539C210.936 140.789 211.373 141.719 210.882 142.237ZM141.215 91.2321C141.531 90.208 142.046 88.7925 142.853 88.0806C143.264 87.7179 143.821 87.3308 144.316 87.5695C144.628 87.7195 144.78 88.0663 144.908 88.3855C145.099 88.8627 145.371 89.5027 145.644 90.1423C145.916 90.7822 146.188 91.4221 146.38 91.8994C146.647 92.5689 146.906 93.6094 146.415 93.9474C144.316 95.3932 144.794 100.671 145.734 103.1C145.958 103.679 146.151 104.868 145.957 105.734C145.764 106.6 144.794 107.379 144.001 106.97C143.546 106.735 142.824 105.49 142.562 105.039C142.539 104.998 142.519 104.963 142.503 104.937C138.637 98.3719 140.78 92.4414 141.166 91.374C141.19 91.3076 141.207 91.2601 141.215 91.2321ZM158.177 162.318C161.615 161.686 165.016 160.864 168.362 159.858C168.414 159.843 168.466 159.827 168.517 159.811C169.559 159.497 170.616 159.179 171.702 159.184C171.566 160.891 170.61 162.472 169.3 163.586C167.989 164.699 166.348 165.377 164.667 165.763C163.392 166.056 162.048 166.187 160.782 165.862C159.515 165.537 158.334 164.697 157.852 163.49C157.68 163.058 157.716 162.402 158.177 162.318ZM162.439 152.135C160.246 152.444 157.929 152.286 155.956 151.289C155.539 151.079 155.755 150.446 156.05 150.085C157.564 148.23 159.859 147.023 162.257 146.82C164.654 146.617 167.122 147.421 168.931 148.995C169.231 149.255 169.535 149.667 169.332 150.007C169.226 150.185 169.014 150.268 168.816 150.338C166.733 151.08 164.631 151.827 162.439 152.135ZM155.685 131.956C153.735 131.35 152.21 129.81 151.096 128.111C150.42 127.082 149.867 125.981 149.314 124.881C148.955 124.165 148.596 123.45 148.203 122.754C148.925 122.635 149.628 123.123 150.028 123.731C150.314 124.166 150.488 124.657 150.661 125.149C150.73 125.346 150.8 125.543 150.877 125.736C152.318 129.367 156.61 131.545 160.475 130.825C164.341 130.105 167.475 126.727 168.145 122.881C168.216 122.477 168.344 121.977 168.749 121.897C169.187 122.26 169.206 122.916 169.129 123.477C168.568 127.548 164.849 130.612 160.875 131.769C159.189 132.26 157.361 132.478 155.685 131.956ZM232.952 134.394C235.388 132.508 238.259 131.178 241.28 130.537C241.642 130.46 242.187 130.539 242.154 130.906C242.144 131.021 242.068 131.12 241.993 131.209C240.492 133.006 238.295 134.057 236.17 135.055C235.574 135.334 234.946 135.62 234.289 135.58C233.631 135.539 232.952 135.048 232.952 134.394ZM243.492 135.298C243.805 135.199 244.148 135.106 244.455 135.22C244.763 135.335 244.966 135.754 244.75 135.999C242.885 138.111 240.095 139.154 237.373 139.921C236.661 140.122 235.615 140.117 235.494 139.393C237.905 137.599 240.621 136.209 243.492 135.298ZM170.269 104.351C170.426 103.385 170.615 102.23 170.615 101.483C170.615 100.457 170.771 99.2015 171.736 98.8362C172.66 98.4858 173.705 99.3261 173.883 100.292C174.06 101.258 172.961 105.157 172.415 105.977C172.166 106.351 171.876 106.724 171.465 106.912C171.054 107.1 170.495 107.039 170.244 106.666C170.113 106.472 170.084 106.23 170.062 105.997C170.039 105.764 170.145 105.117 170.269 104.351ZM170.291 92.2042C170.339 92.2729 170.36 92.3562 170.379 92.4378C170.78 94.1247 170.935 95.8688 170.839 97.5992C170.38 97.8042 170 97.1958 169.865 96.7143L169.287 94.6547C169.06 93.8439 168.877 92.8517 169.484 92.2638C169.704 92.0504 170.116 91.9534 170.291 92.2042ZM145.989 110.559C145.392 110.149 144.908 109.817 144.908 108.805C144.908 107.607 146.212 106.44 146.497 106.666C147.53 107.491 149.388 111.578 149.481 112.891C148.703 112.576 148.13 112.146 147.083 111.361C146.855 111.19 146.605 111.003 146.325 110.796C146.211 110.711 146.098 110.634 145.989 110.559ZM152.772 157.26L154.88 156.818C155.143 156.763 155.463 156.725 155.639 156.927C155.978 157.315 155.31 157.806 154.792 157.816C154.084 157.829 153.373 157.634 152.772 157.26ZM216.764 138.039C217.146 138.082 217.468 138.566 217.217 138.854L217.194 138.88C216.864 139.13 216.486 139.393 216.075 139.335C215.665 139.276 215.376 138.679 215.716 138.444C216.03 138.225 216.383 137.997 216.764 138.039ZM219.797 144.294L219.318 144.224L219.271 144.22L218.256 142.67C219.147 142.384 220.138 143.43 219.797 144.294ZM217.568 141.497C217.178 141.516 216.865 141.034 217.043 140.689C217.222 140.344 217.8 140.317 218.011 140.642C218.222 140.968 217.958 141.479 217.568 141.497ZM164.357 90.9592L160.692 92.6812C157.893 93.9965 154.376 93.6559 151.886 91.8275C151.534 91.7468 151.23 92.1636 151.289 92.5169C151.349 92.8699 151.638 93.137 151.927 93.3504C153.935 94.8271 156.68 95.0122 159.102 94.3999C161.524 93.788 163.696 92.4704 165.801 91.1323C165.648 90.6023 164.859 90.7233 164.357 90.9592ZM160.912 98.9478C160.611 99.2148 160.089 98.8521 160.094 98.4513C160.099 98.0502 160.427 97.7281 160.765 97.5082C162.181 96.5858 164.212 96.729 165.483 97.8406C165.203 98.2984 164.547 98.1923 163.995 98.1029C163.952 98.0957 163.909 98.0889 163.867 98.0824C162.819 97.9187 161.703 98.2454 160.912 98.9478ZM154.125 100.463C154.606 100.354 155.115 99.9885 155.069 99.5011C155.03 99.0906 154.614 98.8179 154.214 98.7073C153.269 98.4467 152.185 98.7854 151.562 99.536C150.939 100.286 150.811 101.408 151.25 102.277C151.461 102.09 151.633 101.859 151.804 101.63C152.058 101.29 152.309 100.952 152.684 100.763C152.967 100.62 153.285 100.582 153.603 100.543C153.779 100.522 153.955 100.501 154.125 100.463ZM163.695 105.869C164.276 105.861 164.668 105.265 164.815 104.706C165.115 103.557 164.809 102.27 164.024 101.375C163.667 100.97 163.061 100.633 162.609 100.928C162.469 101.019 162.368 101.159 162.287 101.305C161.719 102.323 162.003 103.596 162.445 104.675C162.677 105.241 163.078 105.878 163.695 105.869ZM156.343 105.871L156.169 104.08C156.103 103.399 155.956 102.597 155.331 102.309C154.475 101.915 153.572 102.859 153.348 103.767C153.107 104.743 153.246 105.806 153.73 106.689C154.168 107.49 155.261 108.161 155.958 107.568C156.42 107.175 156.401 106.473 156.343 105.871ZM154.898 240.138C159.719 239.995 164.539 239.855 169.36 239.717C169.89 239.701 170.458 239.697 170.898 239.99C171.305 240.263 171.528 240.783 171.443 241.263L157.291 241.528C156.766 241.537 156.221 241.544 155.738 241.339C155.254 241.134 154.846 240.657 154.898 240.138ZM159.85 111.669C159.333 111.523 159.577 110.762 159.82 110.286C160.605 108.749 160.162 106.864 159.376 105.328L159.357 105.29C159.182 104.95 158.996 104.586 159.058 104.212C159.123 103.823 159.616 103.5 159.924 103.748C160.017 103.822 160.074 103.931 160.127 104.037C160.717 105.204 161.296 106.403 161.489 107.694C161.681 108.986 161.433 110.403 160.541 111.362C160.36 111.556 160.106 111.741 159.85 111.669ZM160.621 116.563C163.041 116.178 164.981 113.84 164.898 111.41C164.893 111.265 164.88 111.115 164.805 110.991C164.595 110.643 164.024 110.724 163.754 111.029C163.532 111.279 163.448 111.612 163.365 111.94H163.365C163.347 112.01 163.329 112.08 163.31 112.15C162.986 113.32 162.181 114.351 161.121 114.954C161.069 114.983 161.017 115.012 160.964 115.041C160.654 115.211 160.335 115.386 160.172 115.691C159.982 116.049 160.218 116.627 160.621 116.563ZM175.395 262.933C175.498 265.82 175.822 274.979 175.444 276.641C175.374 276.95 175.26 277.302 174.961 277.415C174.367 277.639 174.019 276.754 174.011 276.123C173.952 271.013 173.892 265.009 173.832 259.004V259.004C173.772 252.999 173.712 246.994 173.653 241.884C174.638 241.884 174.961 245.332 174.961 247.559C174.961 255.041 175.395 262.933 175.395 262.933ZM141.506 199.468C141.362 199.385 141.194 199.301 141.022 199.215C140.336 198.874 139.581 198.498 139.978 197.968C150.48 198.419 161.006 198.315 171.496 197.655C174.467 197.468 177.819 197.036 179.585 194.658C179.655 194.563 179.724 194.465 179.792 194.366C180.027 194.027 180.263 193.686 180.608 193.467C181.054 193.183 181.767 193.219 181.991 193.696C181.676 196.245 179.268 198.37 176.679 198.383C175.547 198.388 175.163 199.855 175.019 200.97C174.876 202.085 174.101 203.513 173.038 203.125C173.306 202.211 173.48 201.27 173.555 200.321C173.581 200.002 173.574 199.633 173.326 199.43C173.133 199.272 172.86 199.271 172.61 199.279L144.892 200.063C144.716 200.068 144.523 200.08 144.397 200.203C144.244 200.352 144.258 200.596 144.283 200.807L146.25 217.451C146.294 217.817 146.443 218.285 146.815 218.287L162.528 218.373C163.363 218.377 164.552 219.011 164.042 219.667C163.833 219.936 163.441 219.96 163.099 219.962L147.108 220.026C146.433 220.029 146.242 220.94 146.267 221.609L146.521 228.458C144.6 227.099 144.469 224.373 144.455 222.032C144.416 215.212 143.802 208.395 142.621 201.676C142.473 200.837 142.247 199.897 141.506 199.468Z" fill="#00160A"/>
<path fill-rule="evenodd" clip-rule="evenodd" d="M177.085 231.8C177.744 230.319 179.276 229.261 180.904 229.164C181.327 229.138 181.808 229.2 182.066 229.534C182.324 229.867 182.103 230.501 181.682 230.446C180.673 230.315 179.666 230.825 178.958 231.551C178.25 232.276 177.788 233.198 177.337 234.103C176.69 233.577 176.748 232.56 177.085 231.8Z" fill="#00160A"/>
<path fill-rule="evenodd" clip-rule="evenodd" d="M248.986 90.1035C249.814 90.1813 250.58 89.7053 251.266 89.2394C253.173 87.9436 255.227 86.1774 255.101 83.8867C255.062 83.1592 254.797 82.4748 254.533 81.7895C254.42 81.4963 254.307 81.2029 254.211 80.9059C253.711 79.355 253.693 77.7198 253.674 76.0803C253.659 74.7356 253.644 73.3881 253.363 72.0819C253.262 71.6135 253.061 71.0813 252.597 70.9481C252.336 70.8731 252.058 70.9493 251.797 71.0253L243.468 73.4522C241.9 73.9091 241.564 75.9305 241.519 77.5524L241.397 81.9656C240.902 82.0272 240.432 81.8345 239.962 81.6418C239.782 81.5683 239.603 81.4947 239.422 81.4353C237.642 80.8504 235.49 81.8339 234.78 83.5567C234.07 85.2794 234.909 87.4794 236.591 88.3015C238.273 89.1236 240.542 88.443 241.483 86.8336C242.123 85.7407 242.161 84.4137 242.182 83.1498L242.221 80.7767C242.236 79.8898 243.238 79.3979 244.085 79.116C246.694 78.2475 249.327 77.4504 251.98 76.7258C252.242 76.6542 252.568 76.6005 252.747 76.8036C252.844 76.9134 252.865 77.068 252.882 77.2129L253.245 80.3199C253.299 80.7807 253.247 81.4004 252.79 81.4981C250.585 81.9698 248.624 83.4654 247.597 85.4598C247.159 86.3095 246.882 87.2852 247.077 88.2202C247.27 89.1548 248.029 90.0141 248.986 90.1035ZM252.355 72.3304C252.449 72.4242 252.475 72.5624 252.498 72.6921L252.751 74.1506C252.817 74.5358 252.881 74.9497 252.712 75.3033C252.446 75.8619 251.74 76.0299 251.127 76.1499C249.711 76.4272 248.314 76.7951 246.946 77.2506C245.803 77.6314 244.682 78.0729 243.562 78.5141C243.467 78.5514 243.372 78.5887 243.278 78.626C243.012 78.7305 242.645 78.806 242.493 78.5665C242.455 78.5065 242.439 78.4356 242.426 78.366C242.158 76.9517 242.816 75.409 244.027 74.6104C244.694 74.1705 245.483 73.9547 246.256 73.7456L251.693 72.2757C251.918 72.215 252.192 72.1661 252.355 72.3304ZM241.386 83.961C241.363 85.328 241.031 86.8909 239.81 87.5526C238.842 88.0773 237.577 87.8252 236.698 87.1658C235.665 86.3917 235.099 84.85 235.853 83.8126C236.167 83.3805 236.658 83.1005 237.166 82.9172C238.334 82.4963 239.668 82.5386 240.805 83.0326C240.986 83.1115 241.172 83.2089 241.277 83.374C241.385 83.5453 241.389 83.7592 241.386 83.961ZM95.857 87.0155C95.9981 87.4468 96.6126 87.4303 97.0575 87.3265L101.103 86.3843C100.991 85.3383 100.786 84.3019 100.492 83.291C100.406 82.993 100.302 82.6814 100.066 82.4775C99.7019 82.1617 99.1563 82.2054 98.6764 82.2673L92.4626 83.0701C92.0356 83.1252 91.4663 83.4005 91.6289 83.7958C93.0512 87.2595 94.1733 90.845 94.9786 94.4991C95.1324 95.1979 95.1066 96.1794 94.4023 96.333C92.3626 96.7768 90.6173 98.3657 89.9959 100.344C89.8048 100.952 89.7179 101.628 89.9652 102.217C90.0992 102.535 90.3242 102.81 90.5761 103.048C91.7861 104.192 93.7154 104.51 95.2327 103.816C96.7501 103.121 97.7595 101.459 97.6687 99.8033C97.6344 99.178 97.459 98.5697 97.2848 97.9678L93.3126 84.246L98.5719 83.8364C99.1005 83.8658 99.3236 84.6107 99.0443 85.0568C98.7653 85.5028 98.2109 85.6884 97.6922 85.7919C97.6174 85.8068 97.5419 85.8209 97.4665 85.835C97.017 85.9191 96.5596 86.0045 96.1951 86.2713C95.9592 86.444 95.7665 86.7386 95.857 87.0155Z" fill="#FE6A6A"/>
<path fill-rule="evenodd" clip-rule="evenodd" d="M176.219 227.362C176.061 227.565 175.704 227.507 175.552 227.299C175.4 227.091 175.414 226.803 175.497 226.56C175.645 226.124 175.981 225.777 176.333 225.478C177.218 224.725 178.271 224.169 179.394 223.86C179.836 223.738 180.353 223.668 180.719 223.943C181.086 224.218 181.027 224.951 180.569 224.992C178.874 225.143 177.257 226.023 176.219 227.362Z" fill="#00160A"/>
</g>
<defs>
<filter id="filter0_d_19_2" x="-22" y="-16" width="385" height="384" filterUnits="userSpaceOnUse" color-interpolation-filters="sRGB">
<feFlood flood-opacity="0" result="BackgroundImageFix"/>
<feColorMatrix in="SourceAlpha" type="matrix" values="0 0 0 0 0 0 0 0 0 0 0 0 0 0 0 0 0 0 127 0" result="hardAlpha"/>
<feOffset/>
<feGaussianBlur stdDeviation="35"/>
<feComposite in2="hardAlpha" operator="out"/>
<feColorMatrix type="matrix" values="0 0 0 0 0 0 0 0 0 0 0 0 0 0 0 0 0 0 0.3 0"/>
<feBlend mode="normal" in2="BackgroundImageFix" result="effect1_dropShadow_19_2"/>
<feBlend mode="normal" in="SourceGraphic" in2="effect1_dropShadow_19_2" result="shape"/>
</filter>
</defs>
</svg>
