<svg width="50" height="50" viewBox="0 0 50 50" fill="none" xmlns="http://www.w3.org/2000/svg">
<path d="M45.3125 7.03125H4.6875C3.85898 7.03218 3.06467 7.36172 2.47882 7.94757C1.89297 8.53342 1.56343 9.32773 1.5625 10.1562V39.8438C1.56343 40.6723 1.89297 41.4666 2.47882 42.0524C3.06467 42.6383 3.85898 42.9678 4.6875 42.9688H45.3125C46.141 42.9678 46.9353 42.6383 47.5212 42.0524C48.107 41.4666 48.4366 40.6723 48.4375 39.8438V10.1562C48.4366 9.32773 48.107 8.53342 47.5212 7.94757C46.9353 7.36172 46.141 7.03218 45.3125 7.03125ZM45.3125 39.8438H4.6875V10.1562H45.3125L45.3145 39.8438H45.3125Z" fill="white" fill-opacity="0.2"/>
<path d="M22.6562 17.9688H40.625V21.0938H22.6562V17.9688Z" fill="white" fill-opacity="0.2"/>
<path d="M17.1875 25H40.625V28.125H17.1875V25Z" fill="white" fill-opacity="0.2"/>
<path d="M17.1875 32.0312H40.625V35.1562H17.1875V32.0312Z" fill="white" fill-opacity="0.2"/>
<path d="M8.6839 14.0625V26.6526L18.3687 19.8733L8.6839 14.0625Z" fill="white" fill-opacity="0.2"/>
</svg>
