<svg width="30" height="30" viewBox="0 0 30 30" fill="none" xmlns="http://www.w3.org/2000/svg">
<path d="M27.1875 4.21875H2.8125C2.31539 4.21931 1.8388 4.41703 1.48729 4.76854C1.13578 5.12005 0.938058 5.59664 0.9375 6.09375V23.9062C0.938058 24.4034 1.13578 24.8799 1.48729 25.2315C1.8388 25.583 2.31539 25.7807 2.8125 25.7812H27.1875C27.6846 25.7807 28.1612 25.583 28.5127 25.2315C28.8642 24.8799 29.0619 24.4034 29.0625 23.9062V6.09375C29.0619 5.59664 28.8642 5.12005 28.5127 4.76854C28.1612 4.41703 27.6846 4.21931 27.1875 4.21875ZM27.1875 23.9062H2.8125V6.09375H27.1875L27.1887 23.9062H27.1875Z" fill="white" fill-opacity="0.5"/>
<path d="M13.5937 10.7812H24.375V12.6562H13.5937V10.7812ZM10.3125 15H24.375V16.875H10.3125V15ZM10.3125 19.2188H24.375V21.0938H10.3125V19.2188ZM5.21033 8.4375V15.9916L11.0212 11.924L5.21033 8.4375Z" fill="white" fill-opacity="0.5"/>
</svg>
